<svg xmlns="http://www.w3.org/2000/svg" id="information" width="26.077" height="26.077" viewBox="0 0 26.077 26.077">

    <g id="Group_282" >
        <g id="Group_281" >
            <path id="Path_640" fill="#609aba" d="M192.119 107.817a2.6 2.6 0 0 0 .143.262c.048.072.119.143.167.215a2.149 2.149 0 0 0 .238.215.8.8 0 0 0 .286.143 1.18 1.18 0 0 0 .31.1 1.466 1.466 0 0 0 .31.024 1.359 1.359 0 0 0 .31-.024.854.854 0 0 0 .262-.1h.024a1.776 1.776 0 0 0 .286-.167 1.542 1.542 0 0 0 .215-.191l.024-.024a1.31 1.31 0 0 0 .167-.215.745.745 0 0 0 .119-.238c0-.024 0-.024.024-.048a1.542 1.542 0 0 0 .1-.31 2.026 2.026 0 0 0 0-.62 2.214 2.214 0 0 0-.1-.31 1.353 1.353 0 0 0-.286-.429l-.048-.048a2.085 2.085 0 0 0-.238-.191c-.1-.048-.167-.1-.262-.143a1.344 1.344 0 0 0-.286-.1 1.467 1.467 0 0 0-.31-.024 1.36 1.36 0 0 0-.31.024 1.344 1.344 0 0 0-.286.1h-.024a2.6 2.6 0 0 0-.262.143 2.082 2.082 0 0 0-.238.191 1.542 1.542 0 0 0-.191.215 2.6 2.6 0 0 0-.143.262 1.346 1.346 0 0 0-.1.286 1.468 1.468 0 0 0-.024.31 1.361 1.361 0 0 0 .024.31 2.165 2.165 0 0 0 .099.382z"  transform="translate(-180.559 -99.307)"/>
            <path id="Path_641" fill="#609aba" d="M181.891 187.26h-.548v-5.84a.615.615 0 0 0-.62-.62h-2.5a.615.615 0 0 0-.62.62v1.287a.615.615 0 0 0 .62.62h.5v3.957h-.5a.615.615 0 0 0-.62.62v1.287a.615.615 0 0 0 .62.62h3.671a.615.615 0 0 0 .62-.62V187.9a.636.636 0 0 0-.623-.64z"   transform="translate(-167.017 -170.026)"/>
            <path id="Path_642" fill="#609aba" d="M13.039 0a13.039 13.039 0 1 0 13.038 13.039A13.042 13.042 0 0 0 13.039 0zm0 24.361a11.322 11.322 0 1 1 11.322-11.322 11.333 11.333 0 0 1-11.322 11.322z"  />
        </g>
    </g>
</svg>
