<svg xmlns="http://www.w3.org/2000/svg"
    width="18.01"
    height="12.6"
    viewBox="0 0 18.01 12.6">
    <path
        d="M17.11,12.1L0.5,12.1L0.5,0.5h16.6l-3.477,5.47 -0.169,0.266 0.167,0.268 3.488,5.596z"
        fill="#e3ffe4"
        stroke="#00000000"/>
    <path
        d="M1,1v10.6h15.208l-3.012,-4.832 -0.333,-0.534 0.338,-0.531L16.19,1L1,1m-1,-1h18.01l-3.965,6.24 3.965,6.36L0,12.6L0,0z"
        fill="#e3ffe4"/>
    <path
        d="M5.118,9.975v-6.532h1.93a3.026,3.026 0,0 1,1.537 0.386,2.631 2.631,0 0,1 1.038,1.094 3.475,3.475 0,0 1,0.368 1.624v0.328a3.46,3.46 0,0 1,-0.37 1.633,2.6 2.6,0 0,1 -1.055,1.086 3.166,3.166 0,0 1,-1.568 0.381zM6.254,4.358v4.711h0.74a1.7,1.7 0,0 0,1.371 -0.559,2.433 2.433,0 0,0 0.487,-1.6v-0.363a2.5,2.5 0,0 0,-0.463 -1.628,1.638 1.638,0 0,0 -1.341,-0.561z"
        fill="#003250"/>
</svg>
