<svg xmlns="http://www.w3.org/2000/svg"
    width="20"
    height="20"
    viewBox="0 0 13 13">
    <path
        fill="#fff"
        fill-opacity="0.7"
        fill-rule="evenodd"
        d="M12.994,10.259c-0.038,-0.184 -0.152,-0.335 -0.345,-0.455l-2.656,-1.57H9.98a0.717,0.717 0,0 0,-0.372 -0.082,0.846 0.846,0 0,0 -0.578,0.22l-0.784,0.8a0.228,0.228 0,0 1,-0.089 0.047,0.316 0.316,0 0,1 -0.09,0.021l-0.172,-0.034a2.099,2.099 0,0 1,-0.495 -0.2,6.282 6.282,0 0,1 -0.805,-0.516 9.068,9.068 0,0 1,-1.102 -0.986,8.935 8.935,0 0,1 -0.977,-1.094 6.01,6.01 0,0 1,-0.509 -0.806,2.482 2.482,0 0,1 -0.247,-0.66c0,-0.028 0.006,-0.063 0.02,-0.104a0.235,0.235 0,0 1,0.048 -0.09l0.675,-0.674a0.855,0.855 0,0 0,0.234 -0.44,0.668 0.668,0 0,0 -0.069,-0.483L3.195,0.358a0.954,0.954 0,0 0,-0.234 -0.255A0.514,0.514 0,0 0,2.645 0a0.606,0.606 0,0 0,-0.44 0.193l-1.83,1.83c-0.093,0.084 -0.17,0.192 -0.235,0.325a1.341,1.341 0,0 0,-0.124 0.392c0,0.019 -0.004,0.11 -0.014,0.276 -0.009,0.165 0.01,0.392 0.056,0.681 0.045,0.29 0.133,0.634 0.261,1.033 0.129,0.4 0.322,0.845 0.578,1.336 0.257,0.491 0.597,1.026 1.018,1.604 0.423,0.579 0.954,1.185 1.597,1.818 0.807,0.817 1.569,1.46 2.284,1.928 0.716,0.469 1.356,0.82 1.92,1.054 0.564,0.234 1.042,0.381 1.431,0.44 0.39,0.06 0.672,0.09 0.847,0.09a1.895,1.895 0,0 0,0.261 -0.014c0.129,-0.018 0.26,-0.06 0.393,-0.124 0.133,-0.063 0.24,-0.142 0.323,-0.234l1.83,-1.818a0.632,0.632 0,0 0,0.193 -0.55v-0.001z" />
</svg>

