<svg xmlns="http://www.w3.org/2000/svg" width="16.026" height="11.5" viewBox="0 0 16.026 11.5">
    <defs>
        <path id="a" d="M0 0h38v24H0z"/>
    </defs>
    <g id="driver-license" transform="translate(0 -72.3)">
        <path id="Path_1242" d="M14.551 72.3H1.475A1.475 1.475 0 0 0 0 73.775v8.549A1.475 1.475 0 0 0 1.475 83.8h13.076a1.475 1.475 0 0 0 1.475-1.475v-8.55a1.475 1.475 0 0 0-1.475-1.475zm.536 10.025a.536.536 0 0 1-.536.536H1.475a.536.536 0 0 1-.536-.536v-8.55a.536.536 0 0 1 .536-.536h13.076a.536.536 0 0 1 .536.536z" class="cls-1"/>
        <path id="Path_1243" d="M84.1 203.709a1.727 1.727 0 1 0-2.575 0 2.482 2.482 0 0 0-1.193 2.12.47.47 0 0 0 .47.47h4.023a.47.47 0 0 0 .47-.47 2.482 2.482 0 0 0-1.195-2.12zm-1.288-1.937a.788.788 0 1 1-.788.788.789.789 0 0 1 .79-.788zm-1.469 3.587a1.542 1.542 0 0 1 2.938 0z" class="cls-1" transform="translate(-77.818 -124.51)"/>
        <path id="Path_1244" d="M293.19 216.9h-3.52a.47.47 0 0 0 0 .939h3.52a.47.47 0 0 0 0-.939z" class="cls-1" transform="translate(-280.148 -140.074)"/>
        <path id="Path_1245" d="M90.861 136.566H80.8a.47.47 0 0 0 0 .939h10.061a.47.47 0 0 0 0-.939z" class="cls-1" transform="translate(-77.818 -62.254)"/>
        <path id="Path_1246" d="M293.19 281.167h-3.52a.47.47 0 1 0 0 .939h3.52a.47.47 0 1 0 0-.939z" class="cls-1" transform="translate(-280.148 -202.329)"/>
        <path id="Path_1247" d="M292.184 345.434h-2.514a.47.47 0 0 0 0 .939h2.514a.47.47 0 0 0 0-.939z" class="cls-1" transform="translate(-280.148 -264.585)"/>
    </g>
</svg>
