<svg xmlns="http://www.w3.org/2000/svg" width="32" height="20" viewBox="0 0 32 20">
    <g fill="#609ABA" fill-rule="evenodd">
        <path d="M16 20c-2.145 0-3.892-1.755-3.892-3.913s1.745-3.913 3.892-3.913 3.892 1.755 3.892 3.913C19.892 18.243 18.145 20 16 20zm0-6.044a2.127 2.127 0 0 0-2.118 2.131c0 1.174.948 2.13 2.118 2.13a2.127 2.127 0 0 0 2.118-2.13c0-1.175-.95-2.13-2.118-2.13z"/>
        <path d="M31.13 17.391H18.946a.883.883 0 0 1-.87-.896c0-.496.39-.897.87-.897h11.285C29.78 7.906 23.57 1.794 15.999 1.794c-7.569 0-13.78 6.114-14.232 13.803H13.05c.481 0 .87.401.87.897a.883.883 0 0 1-.87.896H.87a.883.883 0 0 1-.87-.896C-.001 7.399 7.178 0 16 0c8.82 0 16 7.4 16 16.494a.884.884 0 0 1-.87.897z"/>
        <path d="M17.229 13.913a.81.81 0 0 1-.405-.108.774.774 0 0 1-.28-1.07l2.729-4.524a.806.806 0 0 1 1.092-.275c.38.22.504.7.281 1.07l-2.73 4.524a.802.802 0 0 1-.687.383zM15.568 5.217c-.478 0-.865-.364-.865-.815v-.978c0-.45.387-.815.865-.815s.864.364.864.815v.978c0 .45-.386.815-.864.815zM7.737 8.696a.907.907 0 0 1-.645-.269l-.773-.776a.921.921 0 0 1 .003-1.296.908.908 0 0 1 1.288 0l.772.776a.918.918 0 0 1-.645 1.565zM24.263 8.696a.919.919 0 0 1-.645-1.563l.772-.778a.907.907 0 0 1 1.288 0 .919.919 0 0 1 .002 1.295l-.773.777a.912.912 0 0 1-.644.269zM28.595 17.391h-.974c-.448 0-.81-.389-.81-.87 0-.48.362-.869.81-.869h.974c.448 0 .81.39.81.87s-.362.87-.81.87zM4.38 17.391h-.974c-.449 0-.811-.389-.811-.87 0-.48.362-.869.81-.869h.973c.448 0 .811.39.811.87.001.48-.361.87-.81.87zM11.403 6.087c-.278 0-.542-.197-.654-.523l-.318-.93c-.147-.43.025-.92.386-1.094.358-.173.773.031.92.46l.319.932c.146.428-.026.92-.387 1.093a.606.606 0 0 1-.266.062zM5.219 12.174a.998.998 0 0 1-.324-.055l-.924-.327c-.425-.151-.624-.565-.447-.924.178-.36.664-.53 1.095-.377l.924.327c.425.15.623.565.446.924-.134.27-.445.432-.77.432zM20.594 6.087a.617.617 0 0 1-.272-.065c-.358-.18-.525-.673-.376-1.1l.326-.928c.15-.428.563-.631.92-.448.357.179.524.672.375 1.1l-.326.927c-.113.32-.373.514-.647.514zM26.78 12.174c-.328 0-.64-.166-.772-.44-.174-.362.03-.775.456-.924l.926-.322c.427-.15.915.026 1.088.387.175.363-.03.775-.456.924l-.925.322a.952.952 0 0 1-.317.053z"/>
    </g>
</svg>
