<svg xmlns="http://www.w3.org/2000/svg"
    width="24"
    height="24"
    viewBox="0 0 19.695 19.707">
    <path
        fill="#003250"
        d="M18.594,19.708a1.058,1.058 0,0 1,-0.775 -0.315l-3.511,-3.56A8.845,8.845 0,0 1,0 8.861a8.861,8.861 0,0 1,17.707 -0.535,8.9 8.9,0 0,1 -1.873,6.008l3.534,3.511a1.1,1.1 0,0 1,0.327 0.8,1.042 1.042,0 0,1 -0.327,0.75A1.16,1.16 0,0 1,18.594 19.708ZM8.861,2.178a6.677,6.677 0,0 0,-4.721 11.4A6.677,6.677 0,1 0,13.582 4.14,6.633 6.633,0 0,0 8.861,2.178Z" />
</svg>
