<svg xmlns="http://www.w3.org/2000/svg" id="np_list_204249_000000" width="22" height="17" viewBox="0 0 22 17">
    <path id="Path" d="M1.379 3h13.242A1.429 1.429 0 0 0 16 1.5 1.429 1.429 0 0 0 14.621 0H1.379A1.429 1.429 0 0 0 0 1.5 1.429 1.429 0 0 0 1.379 3z" class="cls-1" transform="translate(6 1)"/>
    <path id="Path-2" d="M4 2a2 2 0 1 1-2-2 2 2 0 0 1 2 2" class="cls-1" transform="translate(0 7)"/>
    <path id="Path-3" d="M4 2a2 2 0 1 1-2-2 2 2 0 0 1 2 2" class="cls-1" />
    <path id="Path-4" d="M14.621 0H1.379A1.429 1.429 0 0 0 0 1.5 1.429 1.429 0 0 0 1.379 3h13.242A1.429 1.429 0 0 0 16 1.5 1.429 1.429 0 0 0 14.621 0z" class="cls-1"  transform="translate(6 7)"/>
    <path id="Path-5" d="M4 2a2 2 0 1 1-2-2 2 2 0 0 1 2 2" class="cls-1"  transform="translate(0 13)"/>
    <path id="Path-6" d="M14.621 0H1.379A1.429 1.429 0 0 0 0 1.5 1.429 1.429 0 0 0 1.379 3h13.242A1.429 1.429 0 0 0 16 1.5 1.429 1.429 0 0 0 14.621 0z" class="cls-1"  transform="translate(6 13)"/>
</svg>
