<svg xmlns="http://www.w3.org/2000/svg" id="information_1_" width="22" height="25.202" viewBox="0 0 25.202 25.202">
>
    <g id="Group_297" >
        <g id="Group_296" >
            <circle id="Ellipse_67" cx="1.231" cy="1.231" r="1.231" fill="#609aba"   transform="translate(11.371 17.4)"/>
            <path id="Path_652" fill="#609aba" d="M12.6 0a12.6 12.6 0 1 0 12.6 12.6A12.594 12.594 0 0 0 12.6 0zm0 23.233A10.632 10.632 0 1 1 23.233 12.6 10.626 10.626 0 0 1 12.6 23.233z"  />
            <path id="Path_653" fill="#609aba" d="M179.938 128.5a3.942 3.942 0 0 0-3.938 3.938.984.984 0 0 0 1.969 0 1.969 1.969 0 1 1 1.969 1.969.984.984 0 0 0-.984.984v2.461a.984.984 0 1 0 1.969 0v-1.6a3.938 3.938 0 0 0-.984-7.751z"  transform="translate(-167.337 -122.175)"/>
        </g>
    </g>
</svg>
