<svg height="16"
    viewBox="0 0 15.591 16.014"
    width="16"
    xmlns="http://www.w3.org/2000/svg">
    <path fill="#a8a8a8" d="M15.518,16.014H7.756v-0.8a1.575,1.575 0,0 1,1.552 -1.593h4.657a1.575,1.575 0,0 1,1.552 1.593v0.8zM0.774,16.008a0.759,0.759 0,0 1,-0.547 -0.233,0.818 0.818,0 0,1 0,-1.131L7.678,7 6.592,5.865l-0.559,0.566a0.759,0.759 0,0 1,-1.095 0l-0.551,-0.566a0.808,0.808 0,0 1,0 -1.123L8.781,0.233a0.759,0.759 0,0 1,1.094 0l0.551,0.567a0.808,0.808 0,0 1,0 1.123l-0.551,0.55 1.1,1.139a0.759,0.759 0,0 1,1.094 0,0.816 0.816,0 0,1 0,1.131l1.094,1.123 0.551,-0.566a0.768,0.768 0,0 1,1.1 0l0.543,0.566a0.816,0.816 0,0 1,0 1.131l-4.385,4.5a0.768,0.768 0,0 1,-1.1 0l-0.543,-0.558a0.8,0.8 0,0 1,0 -1.131l0.543,-0.566L8.781,8.12l-7.46,7.655a0.759,0.759 0,0 1,-0.547 0.233z"/>
</svg>
