<svg height="24" viewBox="0 0 29.774 28.014 "  width="24" xmlns="http://www.w3.org/2000/svg">
    <path fill="#003250" d="M0,8.509v19.5h29.774v-19.5zM28.029,26.268L1.746,26.268v-16.013h26.283zM28.029,26.268"/>
    <path fill="#003250" d="M26.283,12.001h-5.488v6.75h5.488zM24.537,17.001h-2v-3.259h2zM24.537,17.001"/>
    <path fill="#003250" d="M3.782,19.285L13.539,19.285v1.746h-9.757zM3.782,19.285"/>
    <path fill="#003250" d="M3.782,22.777h7.431v1.746h-7.431zM3.782,22.777"/>
    <path fill="#003250" d="M14.98,5.3l1.234,1.234 3.267,-3.267L16.215,0l-1.234,1.234 1.16,1.16h-5.327L10.814,4.14h5.327zM14.98,5.3"/>
</svg>
