<svg xmlns="http://www.w3.org/2000/svg" width="30" height="31" viewBox="0 0 30 31">
    <path fill="#609ABA" fill-rule="evenodd" d="M17.817 7.238c-6.305 0-11.434 5.129-11.434 11.434 0 6.304 5.129 11.433 11.434 11.433 6.304 0 11.434-5.129 11.434-11.433 0-6.305-5.13-11.434-11.434-11.434zm10.016 10.741H24.52c-.121-3.564-1.172-6.634-2.764-8.553a10.064 10.064 0 0 1 6.076 8.553zM17.817 28.642c-2.772 0-5.125-4.184-5.324-9.28H23.14c-.197 5.096-2.55 9.28-5.322 9.28zm-5.322-10.663c.198-5.097 2.551-9.28 5.323-9.28 2.772 0 5.125 4.183 5.323 9.28H12.495zm1.382-8.551c-1.591 1.918-2.642 4.988-2.763 8.552H7.802a10.06 10.06 0 0 1 6.075-8.552zM7.802 19.36h3.312c.121 3.564 1.172 6.635 2.763 8.553a10.061 10.061 0 0 1-6.075-8.553zm13.956 8.555c1.592-1.919 2.642-4.99 2.763-8.553h3.312a10.064 10.064 0 0 1-6.075 8.553zM7.03 9.387l.002-1.045h2.762a.69.69 0 0 0 .691-.691V.691A.69.69 0 0 0 9.795 0H.69A.69.69 0 0 0 0 .691V7.65c0 .382.31.69.691.69h2.652l2.632 1.633a.691.691 0 0 0 1.056-.586zM5.651 7.65v.495L3.903 7.062a.693.693 0 0 0-.364-.104H1.383V1.383h7.72v5.575H6.34c-.38 0-.69.31-.69.692z"/>
</svg>
