<svg xmlns="http://www.w3.org/2000/svg" width="23.762" height="30.09" viewBox="0 0 23.762 30.09">

    <g id="notification_2_"  transform="translate(-53.847)">
        <g id="Group_289"  transform="translate(53.848)">
            <g id="Group_288" >
                <path id="Path_648" d="M76.712 22.218a3.074 3.074 0 0 1-1-2.262V14.1a.588.588 0 0 0-1.175 0v5.851a4.252 4.252 0 0 0 1.383 3.13 1.528 1.528 0 0 1-1.031 2.656H56.551a1.528 1.528 0 0 1-1.031-2.656 4.252 4.252 0 0 0 1.383-3.13v-6.787a8.817 8.817 0 0 1 12.663-7.933 4.353 4.353 0 1 0 .772-.927 9.966 9.966 0 0 0-2.786-.961 2.174 2.174 0 1 0-3.665 0 10.007 10.007 0 0 0-8.158 9.822v6.791a3.074 3.074 0 0 1-1 2.262 2.7 2.7 0 0 0 1.824 4.7H62a3.761 3.761 0 0 0 7.43 0h5.453a2.7 2.7 0 0 0 1.824-4.7zM73.26 4.349a3.174 3.174 0 1 1-3.174 3.174 3.177 3.177 0 0 1 3.174-3.174zm-7.54-3.174a1 1 0 1 1-1 1 1 1 0 0 1 1-1zm0 27.74a2.59 2.59 0 0 1-2.518-2h5.035a2.59 2.59 0 0 1-2.517 2z" fill="#609aba" data-name="Path 648" transform="translate(-53.848)"/>
            </g>
        </g>
        <g id="Group_291"  transform="translate(58.55 12.565)">
            <g id="Group_290" >
                <path id="Path_649" d="M134.436 213.791a.588.588 0 0 0-.588.588v.012a.588.588 0 0 0 1.175 0v-.012a.588.588 0 0 0-.587-.588z" fill="#609aba" transform="translate(-133.848 -213.791)"/>
            </g>
        </g>
        <g id="Group_293"  transform="translate(59.07 5.995)">
            <g id="Group_292" >
                <path id="Path_650" d="M149.354 102a7.161 7.161 0 0 0-6.6 4.37.588.588 0 1 0 1.082.459 5.988 5.988 0 0 1 5.521-3.654.588.588 0 1 0 0-1.175z" fill="#609aba"  transform="translate(-142.704 -101.999)"/>
            </g>
        </g>
        <g id="Group_295"  transform="translate(71.979 5.573)">
            <g id="Group_294" >
                <path id="Path_651" d="M363.837 94.878a.588.588 0 0 0-.641.127l-.676.676a.588.588 0 0 0 .5 1v1.064a.588.588 0 0 0 1.175 0v-2.324a.588.588 0 0 0-.358-.543z" fill="#609aba"  transform="translate(-362.348 -94.833)"/>
            </g>
        </g>
    </g>
</svg>
