<svg xmlns="http://www.w3.org/2000/svg"
    width="28"
    height="24"
    viewBox="0 0 28 24">
    <path
        fill="#FFF"
        fill-rule="evenodd"
        d="M10.694,0c-2.845,0 -5.532,1.037 -7.572,2.921C1.108,4.795 0,7.297 0,9.963c0,5.487 4.797,9.95 10.694,9.95h4.093c0.167,0 0.324,0.06 0.527,0.24l5.107,3.548c0.21,0.196 0.487,0.299 0.77,0.299 0.14,0 0.282,-0.026 0.418,-0.078 0.408,-0.157 0.674,-0.525 0.674,-0.938v-3.876c0,-0.21 0.138,-0.409 0.372,-0.532a10.35,10.35 0,0 0,2.209 -1.569c1.948,-1.801 3.061,-4.208 3.133,-6.776 0.072,-2.6 -1.002,-5.101 -3.025,-7.035C22.849,1.164 19.905,0 16.894,0h-6.2zM1.584,9.963c0,-2.273 0.944,-4.403 2.656,-5.996 1.738,-1.606 4.03,-2.49 6.454,-2.49h6.2c2.585,0 5.115,1.001 6.942,2.748 1.724,1.648 2.638,3.768 2.577,5.968 -0.06,2.187 -1.008,4.234 -2.668,5.768a8.79,8.79 0,0 1,-1.874 1.332c-0.735,0.389 -1.173,1.067 -1.173,1.815v2.953L16.35,19.04a2.275,2.275 0,0 0,-1.563 -0.604h-4.093c-5.023,0 -9.11,-3.801 -9.11,-8.473zM18.219,9.813c0,0.861 0.75,1.56 1.676,1.56 0.924,0 1.675,-0.699 1.675,-1.56 0,-0.863 -0.75,-1.561 -1.675,-1.561 -0.926,0 -1.676,0.698 -1.676,1.56zM12.325,9.813c0,0.861 0.75,1.56 1.675,1.56 0.926,0 1.676,-0.699 1.676,-1.56 0,-0.863 -0.75,-1.561 -1.676,-1.561 -0.924,0 -1.675,0.698 -1.675,1.56zM6.431,9.813c0,0.861 0.75,1.56 1.676,1.56 0.924,0 1.675,-0.699 1.675,-1.56 0,-0.863 -0.75,-1.561 -1.675,-1.561 -0.926,0 -1.676,0.698 -1.676,1.56z" />
</svg>
