<svg xmlns="http://www.w3.org/2000/svg" width="22" height="23" viewBox="0 0 22 23">
    <path fill="#609ABA" fill-rule="evenodd" d="M11 1.616c-2.444 0-4.432 2.031-4.432 4.528 0 2.496 1.988 4.527 4.433 4.527 2.443 0 4.431-2.03 4.431-4.527 0-2.497-1.988-4.528-4.431-4.528zm0 10.67c-4.456 0-8.313 3.082-9.378 7.495-.087.364-.006.733.228 1.038.252.327.644.523 1.049.523H19.1c.405 0 .797-.196 1.048-.523.235-.305.316-.674.23-1.039-1.066-4.412-4.923-7.493-9.378-7.493zM2.9 22.957a2.878 2.878 0 0 1-2.3-1.144 2.85 2.85 0 0 1-.52-2.417 11.548 11.548 0 0 1 2.852-5.254 11.206 11.206 0 0 1 4.661-2.935C5.95 10.055 4.98 8.186 4.98 6.144 4.98 2.756 7.68 0 11 0c3.32 0 6.02 2.756 6.02 6.144 0 2.042-.97 3.91-2.612 5.062 1.763.57 3.37 1.58 4.66 2.935a11.547 11.547 0 0 1 2.852 5.254 2.85 2.85 0 0 1-.52 2.417 2.878 2.878 0 0 1-2.299 1.145H2.899z"/>
</svg>
