<svg xmlns="http://www.w3.org/2000/svg"
   width="38"
   height="28"
   viewBox="0 0 38 28">
    <path
       fill="#A8A8A8"
       fill-rule="evenodd"
       d="M0.927,0C0.41,0.004 0.002,0.456 0,0.933v26.134c0,0.488 0.442,0.933 0.927,0.933h36.146c0.485,0 0.927,-0.445 0.927,-0.933L38,0.933C38,0.445 37.558,0 37.073,0L0.927,0zM1.854,1.867h34.292v20.066l-8.138,-8.59a0.922,0.922 0,0 0,-0.753 -0.276,0.922 0.922,0 0,0 -0.522,0.219l-6.589,5.804 -8.327,-9.436a0.924,0.924 0,0 0,-0.84 -0.306,0.922 0.922,0 0,0 -0.521,0.277l-8.602,9.056L1.854,1.867zM20.39,3.733c-2.036,0 -3.707,1.683 -3.707,3.734 0,2.05 1.67,3.733 3.707,3.733s3.708,-1.683 3.708,-3.733c0,-2.051 -1.671,-3.734 -3.708,-3.734zM20.39,5.6c1.036,0 1.854,0.824 1.854,1.867a1.845,1.845 0,0 1,-1.854 1.866,1.845 1.845,0 0,1 -1.853,-1.866c0,-1.043 0.818,-1.867 1.853,-1.867zM11.093,11.652l12.788,14.481L1.854,26.133L1.854,21.38l9.24,-9.727zM27.284,15.283l8.863,9.348v1.502h-9.79l-4.982,-5.644 5.909,-5.206z" />
</svg>
