<svg xmlns="http://www.w3.org/2000/svg"
    width="31" height="46.829"
    viewBox="0 0 31 46.829">

    <path id="Fill_1"
        d="M15.534 46.829A15.48 15.48 0 0 1 .126 32.621a.134.134 0 0 0 0-.019v-.01a.168.168 0 0 1 0-.031v-.011c-.04-.45-.056-.838-.056-1.184l-.018-6.67v-.021l-.007-2.793L.013 9.678 0 5.31V5.1A4.844 4.844 0 0 1 4.527 0a4.844 4.844 0 0 1 4.53 5.1v8.12a5.086 5.086 0 0 1 8.155 1.711 4.768 4.768 0 0 1 8.248 2.231 3.51 3.51 0 0 1 5.488 2.9v3.2a.815.815 0 0 1 .053.287v7.808a.121.121 0 0 1 0 .017v.012a.064.064 0 0 0 0 .013 13.909 13.909 0 0 1-1 5.386 15.5 15.5 0 0 1-14.467 10.044zm-.278-19.565a6.962 6.962 0 0 0-.946.069L4.893 28.7a4.013 4.013 0 0 0-3.143 3.818 13.824 13.824 0 0 0 26.738 3.673 12.358 12.358 0 0 0 .881-4.808.1.1 0 0 1 .005-.04v-.118a3.506 3.506 0 0 1-4.622-.664 4.747 4.747 0 0 1-5.072 2 4.761 4.761 0 0 1-.4.709 5.947 5.947 0 0 1-3.58 2.237 5.772 5.772 0 0 1 .94 3.289.814.814 0 0 1-1.629 0 3.873 3.873 0 0 0-1.222-3.027h-.005A9.316 9.316 0 0 1 9.623 34.7a.814.814 0 1 1 .747-1.447 7.638 7.638 0 0 0 3.407.894 5 5 0 0 0 .768-.057 4.864 4.864 0 0 0 3.4-1.752 3.046 3.046 0 0 0 .4-.809.785.785 0 0 1 .07-.326c0-.008.008-.015.012-.022s.009-.014.012-.022a3.589 3.589 0 0 0 .006-1.318 2.924 2.924 0 0 0-1.43-2.2h-.034a.444.444 0 0 1-.068.007h-.007a1.178 1.178 0 0 1-.631-.275 4.689 4.689 0 0 0-1.019-.109zm5.519-12.315a3.147 3.147 0 0 0-3.139 2.967l.078 8.238a4.456 4.456 0 0 1 2.331 3.38 5.043 5.043 0 0 1 .063 1.461 3.311 3.311 0 0 0 .667.07 3.165 3.165 0 0 0 3.146-3.085v-7.917a.186.186 0 0 1 0-.031V18.1a3.153 3.153 0 0 0-3.146-3.151zm6.657 3.234a1.881 1.881 0 0 0-1.878 1.879V28.3a1.878 1.878 0 1 0 3.757 0v-8.238a1.881 1.881 0 0 0-1.879-1.879zM4.529 1.626A3.228 3.228 0 0 0 1.628 5.1v1.406c.011 4.235.046 16.9.059 22.2a5.338 5.338 0 0 1 2.95-1.613l2.88-.418-.08-8.445a.715.715 0 0 1-.012-.12V5.1a3.228 3.228 0 0 0-2.896-3.474zm8 11.844a3.476 3.476 0 0 0-3.471 3.473l.09 9.5 4.937-.715a8.342 8.342 0 0 1 1.165-.084 7.3 7.3 0 0 1 .75.038V18.1c0-.035 0-.069.005-.1s0-.053 0-.08L16 16.949a3.478 3.478 0 0 0-3.47-3.478z" />
</svg>
