<svg xmlns="http://www.w3.org/2000/svg"
    width="32"
    height="20"
    viewBox="0 0 32 20">
    <path
        fill="#003250"
        fill-rule="evenodd"
        d="M8.99,20a3.624,3.624 0,0 0,3.64 -3.64h9.178a3.624,3.624 0,0 0,3.64 3.64,3.624 3.624,0 0,0 3.64,-3.64h2.91v-1.617L32,5.12A4.866,4.866 0,0 0,27.147 0.268L12.185,0.268c-1.132,0 -2.021,0.889 -2.021,2.021v0.526L7.737,2.815A6.026,6.026 0,0 0,2.32 6.131L0.945,8.801c-0.04,0.121 -0.08,0.243 -0.08,0.363v7.198h4.528C5.351,18.343 6.968,20 8.99,20zM8.99,18.382a2.002,2.002 0,0 1,-2.022 -2.021c0,-1.133 0.89,-2.022 2.022,-2.022 0.485,0 0.97,0.202 1.294,0.485 0.04,0.08 0.121,0.121 0.16,0.16 0.325,0.364 0.527,0.85 0.527,1.335a2.002,2.002 0,0 1,-1.98 2.063zM25.409,18.382a2.002,2.002 0,0 1,-2.022 -2.021c0,-1.133 0.889,-2.022 2.022,-2.022 1.132,0 2.021,0.889 2.021,2.022 0,1.132 -0.889,2.021 -2.021,2.021zM12.145,1.885h14.962a3.245,3.245 0,0 1,3.235 3.235v9.625h-1.659a3.617,3.617 0,0 0,-3.276 -2.022c-1.456,0 -2.67,0.809 -3.276,2.022l-9.906,-0.002c-0.121,-0.283 -0.324,-0.526 -0.485,-0.768L11.74,2.29c0,-0.202 0.161,-0.405 0.405,-0.405zM3.733,6.858A4.416,4.416 0,0 1,7.696 4.43h2.427v3.923l-7.157,0.001 0.767,-1.497zM2.44,14.743v-4.77h7.684v2.91a3.499,3.499 0,0 0,-1.133 -0.201c-1.415,0 -2.67,0.808 -3.276,2.021L2.439,14.703v0.04z" />
</svg>
