<svg xmlns="http://www.w3.org/2000/svg" xmlns:xlink="http://www.w3.org/1999/xlink" width="38" height="24" viewBox="0 0 38 24">
    <defs>
        <path id="a" d="M0 0h38v24H0z"/>
    </defs>
    <g fill="none" fill-rule="evenodd">
        <mask id="b" fill="#fff">
            <use xlink:href="#a"/>
        </mask>
        <path fill="#FEFEFE" d="M36.634 11.468H19.132l-.002-1.804h17.504v1.804zm0 5.215h-3.436l-.711-.874h-5.395l-.64.874h-7.316l-.002-3.817h17.5v3.817zm-6.85 5.97c-1.376 0-2.493-1.144-2.493-2.55s1.117-2.548 2.492-2.548c1.373 0 2.492 1.142 2.492 2.549 0 1.405-1.119 2.549-2.492 2.549zM18.28 4.22l-.24.055H9.664l.2-2.427.41.13 8.069 1.63-.062.612zm-6.096 5.7v-3.01h4.12V9.97l-4.12-.048zm5.4 6.762h-5.4V11.32l5.4.063v5.3zM7.56 22.628c-1.36 0-2.467-1.133-2.467-2.524 0-1.392 1.106-2.524 2.467-2.524 1.36 0 2.467 1.132 2.467 2.524 0 1.391-1.107 2.524-2.467 2.524zm-4.583-4.954l-1.577.074.079-4.166c.223-.421.781-1.271 1.404-1.426.737-.184 3.582-.619 5.48-.9l-.009.018 2.465.03v5.379h-.09a7.161 7.161 0 0 0-.55-.288c-.32-.152-.62-.314-.907-.469-1.339-.723-2.721-1.468-4.534-.117a7.796 7.796 0 0 0-1.76 1.865zm15.975-9.407V5.5l.586-.134.292-2.882L10.61.625 8.645 0l-.52 5.097L10 6.677l-.894 3.056c-1.73.254-5.607.832-6.546 1.065-1.452.361-2.29 2.114-2.38 2.314l-.06.132L0 19.212l3.772-.175.186-.339a4.19 4.19 0 0 1 .201-.314 3.938 3.938 0 0 0-.407 1.72C3.752 22.255 5.456 24 7.559 24c2.103 0 3.809-1.745 3.809-3.896 0-.247-.029-.487-.072-.72h14.75a4.01 4.01 0 0 0-.071.72c0 2.151 1.704 3.896 3.807 3.896 2.103 0 3.809-1.745 3.809-3.896 0-.247-.03-.487-.071-.72H38V8.266H18.952z" mask="url(#b)"/>
    </g>
</svg>
