<svg xmlns="http://www.w3.org/2000/svg"
    width="24"
    height="24"
    viewBox="0 0 19 19">
    <path
        fill="#646464"
        fill-rule="evenodd"
        d="M9.5,19a9.5,9.5 0,1 1,0 -19,9.5 9.5,0 0,1 0,19zM9.5,1.583c-2.1,0 -4.113,0.834 -5.598,2.32a7.914,7.914 0,0 0,0 11.195,7.914 7.914,0 0,0 11.196,0 7.914,7.914 0,0 0,0 -11.196A7.914,7.914 0,0 0,9.5 1.583zM8.946,10.103a0.799,0.799 0,0 1,-0.238 -0.613L8.708,5.542a0.792,0.792 0,0 1,1.584 0v3.587l2.137,2.137a0.823,0.823 0,0 1,-1.163 1.163l-2.32,-2.326z" />
</svg>
