<svg xmlns="http://www.w3.org/2000/svg"
    width="18"
    height="16"
    viewBox="0 0 17.277 15.838">
    <path
        fill="#9b9b9b"
        d="M13.159,13.47a1.172,1.172 0,1 1,1.17 -1.173A1.173,1.173 0,0 1,13.159 13.47zM17.039,11.932L15.115,11.932A1.946,1.946 0,0 0,11.609 11.07a3.165,3.165 0,0 0,-0.874 -0.312L10.397,10.689L10.397,9.66a7.343,7.343 0,0 0,0.746 -2.9A5.138,5.138 0,0 0,10.397 4.091L10.397,3.946A0.477,0.477 0,0 1,10.874 3.47h2.241a1.9,1.9 0,0 1,1.576 0.837L16.137,6.448a1.911,1.911 0,0 1,0.326 1.061v3.229h0.576a0.24,0.24 0,0 1,0.238 0.232v0.72a0.238,0.238 0,0 1,-0.238 0.241zM11.716,4.762a0.237,0.237 0,0 0,-0.236 0.237v1.642a0.234,0.234 0,0 0,0.236 0.236h2.957a0.238,0.238 0,0 0,0.2 -0.372L13.712,4.864a0.231,0.231 0,0 0,-0.193 -0.1z" />
    <path
        fill="#9b9b9b"
        d="M5.367,15.837a0.465,0.465 0,0 1,-0.346 -0.154,30.615 30.615,0 0,1 -1.92,-2.416l2.26,-3.915h0.005A2.592,2.592 0,0 0,7.612 5.459l1.37,-2.373a5.116,5.116 0,0 1,1.542 3.673c0,3.533 -4.613,8.705 -4.809,8.924a0.464,0.464 0,0 1,-0.348 0.154zM2.323,12.128C0.922,9.96 0.212,8.154 0.212,6.759A5.153,5.153 0,0 1,7.985 2.321l-1.28,2.218A2.593,2.593 0,1 0,4.112 9.029l-1.789,3.1z" />
    <path
        fill="#9b9b9b"
        d="M-0.0001,15.0758l8.704,-15.0758l1.0765,0.6215L1.0764,15.6973z" />
</svg>