<svg xmlns="http://www.w3.org/2000/svg"
    width="18"
    height="16"
    viewBox="0 0 17.064 14.232">
    <path
        fill="#003250"
        d="M12.946,11.865a1.172,1.172 0,1 1,1.17 -1.172A1.173,1.173 0,0 1,12.946 11.865zM16.826,10.326L14.902,10.326A1.946,1.946 0,0 0,11.396 9.465a3.165,3.165 0,0 0,-0.874 -0.312L10.184,9.084L10.184,8.056a7.343,7.343 0,0 0,0.746 -2.9A5.139,5.139 0,0 0,10.184 2.486L10.184,2.341A0.477,0.477 0,0 1,10.661 1.865h2.241a1.9,1.9 0,0 1,1.576 0.837L15.924,4.843a1.911,1.911 0,0 1,0.326 1.062v3.228h0.576a0.24,0.24 0,0 1,0.238 0.232v0.72a0.238,0.238 0,0 1,-0.238 0.241zM11.503,3.157a0.237,0.237 0,0 0,-0.236 0.237v1.642a0.234,0.234 0,0 0,0.236 0.236h2.957a0.238,0.238 0,0 0,0.2 -0.372L13.499,3.259a0.231,0.231 0,0 0,-0.193 -0.1z" />
    <path
        fill="#003250"
        d="M5.154,0a5.16,5.16 0,0 0,-5.154 5.154c0,3.527 4.613,8.705 4.809,8.924a0.464,0.464 0,0 0,0.691 0c0.2,-0.219 4.809,-5.4 4.809,-8.924A5.16,5.16 0,0 0,5.154 0zM5.154,7.748a2.593,2.593 0,1 1,2.593 -2.593,2.6 2.6,0 0,1 -2.593,2.593z" />
</svg>
