<svg xmlns="http://www.w3.org/2000/svg"
    width="24"
    height="24"
    viewBox="0 0 15.359 15.359">
    <path
        fill="#646464"
        d="M13.559 1.2h-0.72V0h-1.2V1.2H3.72V0H2.52V1.2H1.8A1.8 1.8 0 0 0 0 3v10.56a1.8 1.8 0 0 0 1.8 1.8h11.76a1.8 1.8 0 0 0 1.8 -1.8V3A1.8 1.8 0 0 0 13.559 1.2Zm0.6 12.359a0.6 0.6 0 0 1 -0.6 0.6H1.8a0.6 0.6 0 0 1 -0.6 -0.6V5.64H14.159Zm0 -9.12H1.2V3a0.6 0.6 0 0 1 0.6 -0.6h0.72V3.6h1.2V2.4h7.92V3.6h1.2V2.4h0.72a0.6 0.6 0 0 1 0.6 0.6Z" />
    <g
        transform="translate(2.28,6.9)">
        <path
            fill="#646464"
            d="M0 0H1.2V1.2H0V0Z" />
    </g>
    <g
        transform="translate(4.68,6.9)">
        <path
            fill="#646464"
            d="M0 0H1.2V1.2H0V0Z" />
    </g>
    <g
        transform="translate(7.08,6.9)">
        <path
            fill="#646464"
            d="M0 0H1.2V1.2H0V0Z" />
    </g>
    <g
        transform="translate(9.48,6.9)">
        <path
            fill="#646464"
            d="M0 0H1.2V1.2H0V0Z" />
    </g>
    <g
        transform="translate(11.88,6.9)">
        <path
            fill="#646464"
            d="M0 0H1.2V1.2H0V0Z" />
    </g>
    <g
        transform="translate(2.28,6.9)">
        <path
            fill="#646464"
            d="M0 0H1.2V1.2H0V0Z" />
    </g>
    <g
        transform="translate(4.68,9.3)">
        <path
            fill="#646464"
            d="M0 0H1.2V1.2H0V0Z" />
    </g>
    <g
        transform="translate(7.08,9.3)">
        <path
            fill="#646464"
            d="M0 0H1.2V1.2H0V0Z" />
    </g>
    <g
        transform="translate(9.48,9.3)">
        <path
            fill="#646464"
            d="M0 0H1.2V1.2H0V0Z" />
    </g>
    <g
        transform="translate(2.28,11.7)">
        <path
            fill="#646464"
            d="M0 0H1.2V1.2H0V0Z" />
    </g>
    <g
        transform="translate(4.68,11.7)">
        <path
            fill="#646464"
            d="M0 0H1.2V1.2H0V0Z" />
    </g>
    <g
        transform="translate(7.08,11.7)">
        <path
            fill="#646464"
            d="M0 0H1.2V1.2H0V0Z" />
    </g>
    <g
        transform="translate(9.48,11.7)">
        <path
            fill="#646464"
            d="M0 0H1.2V1.2H0V0Z" />
    </g>
    <g
        transform="translate(11.88,9.3)">
        <path
            fill="#646464"
            d="M0 0H1.2V1.2H0V0Z" />
    </g>
</svg>
