<svg xmlns="http://www.w3.org/2000/svg"
    width="38"
    height="49.271"
    viewBox="0 0 38 49.271">
    <path
        fill="#003250"
        fill-rule="evenodd"
        d="M32.3,17.244l1.393,-1.393 1.14,1.141 1.458,-1.457 -3.8,-3.8 -1.458,1.393 1.203,1.202 -1.52,1.519A18.899,18.899 0,0 0,19 11.797c-10.45,0 -19,8.55 -19,19s8.55,19 19,19 19,-8.55 19,-19c0,-5.32 -2.217,-10.07 -5.7,-13.552zM19,47.77c-9.31,0 -16.91,-7.6 -16.91,-16.91 0,-9.308 7.6,-16.908 16.91,-16.908s16.91,7.6 16.91,16.909c0,9.31 -7.539,16.91 -16.91,16.91zM24.193,5.718c0,-2.85 -2.343,-5.193 -5.193,-5.193 -2.85,0 -5.193,2.343 -5.193,5.193 0,1.52 0.634,2.915 1.774,3.865l1.331,-1.52c-0.698,-0.568 -1.076,-1.457 -1.076,-2.342a3.107,3.107 0,0 1,3.102 -3.103,3.107 3.107,0 0,1 3.103,3.103c0,0.885 -0.381,1.774 -1.077,2.343l1.331,1.519c1.265,-1.015 1.898,-2.408 1.898,-3.865zM20.012,10.594h-2.026L17.986,7.302h2.09v3.292h-0.064zM20.012,15.725h-2.026v3.8h2.09v-3.8h-0.064zM34.136,31.811h-3.8v-2.09h3.8v2.09zM20.012,45.935h-2.026v-3.8h2.09v3.8h-0.064zM7.662,31.81h-3.8v-2.09h3.8v2.09zM21.216,30.036c0.065,0.252 0.127,0.507 0.127,0.76a2.405,2.405 0,0 1,-2.408 2.407,2.405 2.405,0 0,1 -2.407,-2.408 2.405,2.405 0,0 1,2.407 -2.407c0.253,0 0.508,0.065 0.76,0.126l7.157,-7.157 1.457,1.457 -7.093,7.222z" />
</svg>
