<svg xmlns="http://www.w3.org/2000/svg"
    width="126"
    height="141"
    viewBox="0 0 126 141.158">
    <path
        fill="#495a79"
        d="M123.407,90.809l-44.533,-81.8a18.49,18.49 0,0 0,-31.747 0l-44.533,81.8a18.436,18.436 0,0 0,-0.147 18.6,18.215 18.215,0 0,0 16.02,9.3h89.066a18.215,18.215 0,0 0,16.021 -9.3,18.436 18.436,0 0,0 -0.147,-18.6z" />
    <path
        fill="#42516d"
        d="M123.554,109.414a18.215,18.215 0,0 1,-16.02 9.3L63,118.714L63,-0a18.432,18.432 0,0 1,15.873 9.007l44.533,81.8a18.435,18.435 0,0 1,0.148 18.607z" />
    <path
        fill="#ffde33"
        d="M117.057,94.574l-44.534,-81.8a11.109,11.109 0,0 0,-19.047 0l-44.534,81.8a11.122,11.122 0,0 0,9.524 16.759h89.066a11.121,11.121 0,0 0,9.524 -16.759z" />
    <path
        fill="#ffbc33"
        d="M117.131,105.722a10.9,10.9 0,0 1,-9.6 5.611L63,111.333L63,7.383a10.963,10.963 0,0 1,9.524 5.389l44.534,81.8a10.965,10.965 0,0 1,0.073 11.15z" />
    <path
        fill="#495a79"
        d="M63,103.951a7.383,7.383 0,1 1,7.383 -7.383,7.392 7.392,0 0,1 -7.383,7.383z" />
    <path
        fill="#495a79"
        d="M70.383,74.422a7.383,7.383 0,0 1,-14.766 0v-36.917a7.383,7.383 0,1 1,14.766 0z" />
    <path
        fill="#42516d"
        d="M70.383,96.568A7.392,7.392 0,0 0,63 89.185v14.766a7.392,7.392 0,0 0,7.383 -7.383z" />
    <path
        fill="#42516d"
        d="M70.383,74.422v-36.917A7.392,7.392 0,0 0,63 30.122v51.68a7.392,7.392 0,0 0,7.383 -7.38z" />
    <path
        fill="#e1e1e1"
        d="M0,139.158a63,2 0,1 0,126 0a63,2 0,1 0,-126 0z" />
    <path
        fill="#dbdbdb"
        d="M23,139.158a40,2 0,1 0,80 0a40,2 0,1 0,-80 0z" />
</svg>
