<svg  xmlns="http://www.w3.org/2000/svg"
    width="24.853"
    height="17.086"
    viewBox="0 0 24.853 17.086">
    <g fill='#609aba' id="prefix__Group_411" transform="translate(-29 -361)">
        <path id="prefix__Path_1207" d="M1.173-16.478a1.012 1.012 0 0 1 .748.263 1 1 0 0 1 .238.427 2.763 2.763 0 0 1 .082.764v.6h2.795v.682H2.242v2.153a.875.875 0 0 0 .09.468.424.424 0 0 0 .37.132 1.271 1.271 0 0 0 .6-.16 1.469 1.469 0 0 0 .493-.419.911.911 0 0 0 .193-.555.339.339 0 0 0-.095-.251.451.451 0 0 0-.325-.095q-.107 0-.2.008a.875.875 0 0 0-.173.033l-.1-.641q.14-.033.308-.058a2.353 2.353 0 0 1 .341-.025 1.159 1.159 0 0 1 .736.222.832.832 0 0 1 .284.7 1.559 1.559 0 0 1-.185.748 2.017 2.017 0 0 1-.5.6 2.506 2.506 0 0 1-.69.407 2.062 2.062 0 0 1-.756.148 1.622 1.622 0 0 1-.526-.074.953.953 0 0 1-.345-.2.913.913 0 0 1-.214-.321 1.869 1.869 0 0 1-.082-.658v-2.17H.7v-.682h.773v-.567a1.462 1.462 0 0 0-.095-.592q-.095-.205-.448-.205a1.136 1.136 0 0 0-.284.037 2.3 2.3 0 0 0-.251.078l-.247-.592a3.194 3.194 0 0 1 .5-.16 2.366 2.366 0 0 1 .525-.045z" class="prefix__cls-1" transform="translate(45.39 384.805)"/>
        <g id="prefix__credit-card" transform="translate(29 281)">
            <path id="prefix__Path_1208" d="M22.135 80H2.718A2.721 2.721 0 0 0 0 82.718v11.65a2.721 2.721 0 0 0 2.718 2.718h19.417a2.721 2.721 0 0 0 2.718-2.718v-11.65A2.721 2.721 0 0 0 22.135 80zM2.718 81.553h19.417a1.166 1.166 0 0 1 1.165 1.165v1.553H1.553v-1.553a1.166 1.166 0 0 1 1.165-1.165zm19.416 13.98H2.718a1.166 1.166 0 0 1-1.165-1.165v-8.543H23.3v8.543a1.166 1.166 0 0 1-1.165 1.165z" class="prefix__cls-1" />
            <path id="prefix__Path_1209" d="M81.553 306.33h-.777a.777.777 0 0 1-.777-.777v-.777a.777.777 0 0 1 .777-.777h.777a.777.777 0 0 1 .777.777v.777a.777.777 0 0 1-.777.777z" class="prefix__cls-1"  transform="translate(-76.117 -213.127)"/>
            <path id="prefix__Path_1210" d="M81.553 306.33h-.777a.777.777 0 0 1-.777-.777v-.777a.777.777 0 0 1 .777-.777h.777a.777.777 0 0 1 .777.777v.777a.777.777 0 0 1-.777.777z" class="prefix__cls-1"  transform="translate(-75.117 -213.127)"/>
        </g>
    </g>
</svg>
